<?xml version="1.0" encoding="utf-8"?>
<!-- Generator: Adobe Illustrator 28.1.0, SVG Export Plug-In . SVG Version: 6.00 Build 0)  -->
<svg version="1.1" id="Camada_1" xmlns="http://www.w3.org/2000/svg" xmlns:xlink="http://www.w3.org/1999/xlink" x="0px" y="0px"
	 viewBox="0 0 121.6 41" style="enable-background:new 0 0 121.6 41;" xml:space="preserve">
<style type="text/css">
	.st0{enable-background:new    ;}
	.st1{fill:#FFFFFF;}
	.st2{fill:#4CB9E7;}
	.st3{fill:none;stroke:#BABABA;stroke-width:0.25;stroke-miterlimit:10;}
</style>
<g class="st0">
	<path class="st1" d="M44.8,23.5c-0.4,0.5-0.9,0.9-1.5,1.2c-0.6,0.3-1.3,0.4-1.9,0.4c-0.6,0-1.2-0.1-1.8-0.3c-0.6-0.2-1-0.5-1.4-0.9
		s-0.7-0.8-1-1.4s-0.4-1.1-0.4-1.8c0-0.6,0.1-1.2,0.4-1.8s0.6-1,1-1.4s0.9-0.7,1.4-0.9c0.6-0.2,1.1-0.3,1.8-0.3
		c0.6,0,1.1,0.1,1.6,0.3c0.5,0.2,0.9,0.5,1.2,0.9s0.6,0.8,0.8,1.4c0.2,0.5,0.3,1.1,0.3,1.8v0.8h-5.8c0.1,0.5,0.3,0.9,0.7,1.2
		c0.3,0.3,0.8,0.4,1.2,0.4s0.8-0.1,1.1-0.3c0.3-0.2,0.5-0.4,0.7-0.7L44.8,23.5z M42.7,19.9c0-0.4-0.1-0.8-0.4-1.1
		c-0.3-0.3-0.7-0.5-1.1-0.5c-0.3,0-0.5,0-0.7,0.1s-0.4,0.2-0.5,0.3c-0.2,0.1-0.3,0.3-0.4,0.5c-0.1,0.2-0.1,0.4-0.1,0.6h3.2V19.9z"/>
	<path class="st1" d="M48.9,20.5l-2.7-3.8h3l1.4,2.2l1.4-2.2h2.8l-2.7,3.8l3.1,4.4h-3l-1.8-2.7l-1.9,2.7h-2.9L48.9,20.5z"/>
	<path class="st1" d="M63.8,23.5c-0.4,0.5-0.9,0.9-1.5,1.2c-0.6,0.3-1.3,0.4-1.9,0.4c-0.6,0-1.2-0.1-1.8-0.3c-0.6-0.2-1-0.5-1.4-0.9
		s-0.7-0.8-1-1.4s-0.4-1.1-0.4-1.8c0-0.6,0.1-1.2,0.4-1.8s0.6-1,1-1.4s0.9-0.7,1.4-0.9c0.6-0.2,1.1-0.3,1.8-0.3
		c0.6,0,1.1,0.1,1.6,0.3c0.5,0.2,0.9,0.5,1.2,0.9s0.6,0.8,0.8,1.4c0.2,0.5,0.3,1.1,0.3,1.8v0.8h-5.8c0.1,0.5,0.3,0.9,0.7,1.2
		c0.3,0.3,0.8,0.4,1.2,0.4s0.8-0.1,1.1-0.3c0.3-0.2,0.5-0.4,0.7-0.7L63.8,23.5z M61.7,19.9c0-0.4-0.1-0.8-0.4-1.1
		c-0.3-0.3-0.7-0.5-1.1-0.5c-0.3,0-0.5,0-0.7,0.1s-0.4,0.2-0.5,0.3c-0.2,0.1-0.3,0.3-0.4,0.5c-0.1,0.2-0.1,0.4-0.1,0.6h3.2V19.9z"/>
	<path class="st1" d="M65.7,16.7h2.5V18l0,0c0.3-0.5,0.6-0.9,1-1.1c0.4-0.3,0.8-0.4,1.4-0.4c0.1,0,0.3,0,0.4,0s0.3,0,0.4,0.1v2.3
		c-0.2-0.1-0.4-0.1-0.5-0.1c-0.2,0-0.4,0-0.5,0c-0.5,0-0.9,0.1-1.1,0.2c-0.3,0.1-0.5,0.3-0.6,0.6s-0.2,0.5-0.3,0.9s-0.1,0.7-0.1,1.1
		V25h-2.5v-8.3H65.7z"/>
	<path class="st1" d="M77.8,19.3c-0.1-0.2-0.3-0.3-0.5-0.4s-0.5-0.2-0.7-0.2c-0.6,0-1.1,0.2-1.5,0.6s-0.5,0.9-0.5,1.5
		s0.2,1.1,0.5,1.5c0.4,0.4,0.8,0.6,1.5,0.6c0.3,0,0.5-0.1,0.7-0.2s0.4-0.3,0.5-0.4l1.7,1.7c-0.4,0.4-0.9,0.7-1.4,0.8s-1,0.2-1.5,0.2
		c-0.6,0-1.2-0.1-1.8-0.3c-0.6-0.2-1-0.5-1.4-0.9s-0.7-0.8-1-1.4s-0.4-1-0.4-1.6s0.1-1.2,0.4-1.8s0.6-1,1-1.4s0.9-0.7,1.4-0.9
		c0.6-0.2,1.1-0.3,1.8-0.3c0.5,0,1,0.1,1.5,0.2s1,0.4,1.4,0.8L77.8,19.3z"/>
	<path class="st1" d="M81.7,13h3.4l-2.9,2.4H80L81.7,13z M80.4,16.7h2.5v8.2h-2.5V16.7z"/>
	<path class="st1" d="M90.3,19.3c-0.1-0.2-0.3-0.3-0.5-0.4s-0.5-0.2-0.7-0.2c-0.6,0-1.1,0.2-1.5,0.6S87,20.2,87,20.8
		c0,0.6,0.2,1.1,0.5,1.5s0.8,0.6,1.5,0.6c0.3,0,0.5-0.1,0.7-0.2s0.4-0.3,0.5-0.4l1.7,1.7c-0.4,0.4-0.9,0.7-1.4,0.8
		C90,25,89.5,25,89,25c-0.6,0-1.2-0.1-1.8-0.3c-0.6-0.2-1-0.5-1.4-0.9s-0.7-0.8-1-1.4s-0.4-1.1-0.4-1.8c0-0.6,0.1-1.2,0.4-1.8
		s0.6-1,1-1.4s0.9-0.7,1.4-0.9c0.6-0.2,1.1-0.3,1.8-0.3c0.5,0,1,0.1,1.5,0.2c0.5,0.2,1,0.4,1.4,0.8L90.3,19.3z"/>
	<path class="st1" d="M92.7,14.1c0-0.4,0.1-0.7,0.4-1s0.6-0.4,1-0.4s0.7,0.1,1,0.4c0.3,0.3,0.4,0.6,0.4,1s-0.1,0.7-0.4,1
		s-0.6,0.4-1,0.4s-0.7-0.1-1-0.4C92.8,14.9,92.7,14.5,92.7,14.1z M92.9,16.7h2.5v8.2h-2.5V16.7z"/>
	<path class="st1" d="M96.9,20.8c0-0.6,0.1-1.2,0.4-1.8c0.2-0.5,0.6-1,1-1.4s0.9-0.7,1.4-0.9c0.6-0.2,1.1-0.3,1.8-0.3
		c0.6,0,1.2,0.1,1.8,0.3c0.6,0.2,1,0.5,1.4,0.9s0.7,0.8,1,1.4s0.4,1.1,0.4,1.8c0,0.7-0.1,1.2-0.4,1.8s-0.6,1-1,1.4s-0.9,0.7-1.4,0.9
		c-0.6,0.2-1.1,0.3-1.8,0.3c-0.6,0-1.2-0.1-1.8-0.3c-0.6-0.2-1-0.5-1.4-0.9s-0.7-0.8-1-1.4C97,22,96.9,21.4,96.9,20.8z M99.4,20.8
		c0,0.6,0.2,1.1,0.5,1.5c0.4,0.4,0.8,0.6,1.5,0.6c0.6,0,1.1-0.2,1.5-0.6s0.5-0.9,0.5-1.5s-0.2-1.1-0.5-1.5s-0.8-0.6-1.5-0.6
		c-0.6,0-1.1,0.2-1.5,0.6C99.6,19.7,99.4,20.2,99.4,20.8z"/>
	<path class="st1" d="M111.4,15.8l-2.4,2.1l-1.4-1.6l3.9-3.3h2.4v11.9h-2.4L111.4,15.8L111.4,15.8z"/>
</g>
<g>
	<g>
		<g>
			<path class="st2" d="M13.4,9L4,18.4c-1.4,1.4-1.4,3.8,0,5.2l9.4,9.4c1.4,1.4,3.8,1.4,5.2,0l9.4-9.4c1.4-1.4,1.4-3.8,0-5.2L18.5,9
				C17.1,7.6,14.8,7.6,13.4,9z"/>
		</g>
	</g>
	<g class="st0">
		<path class="st1" d="M15.3,17.6l-2,1.7L12.1,18l3.2-2.7h1.9V25h-2L15.3,17.6L15.3,17.6z"/>
	</g>
</g>
<path class="st3" d="M39.3,28.3l0.9,0.3L37.8,35l-0.9-0.3L39.3,28.3z"/>
<path class="st3" d="M43.5,28.3v2.8l0,0c0-0.1,0.1-0.2,0.1-0.2c0.1-0.1,0.1-0.1,0.2-0.2c0.1-0.1,0.2-0.1,0.3-0.1s0.3-0.1,0.4-0.1
	c0.3,0,0.6,0,0.8,0.1s0.3,0.2,0.5,0.4c0.1,0.2,0.2,0.4,0.2,0.6s0.1,0.5,0.1,0.8v2.2h-1.2v-2c0-0.1,0-0.2,0-0.4c0-0.1,0-0.2-0.1-0.3
	c0-0.1-0.1-0.2-0.2-0.3s-0.2-0.1-0.4-0.1s-0.3,0-0.4,0.1c-0.1,0.1-0.2,0.1-0.2,0.2c-0.1,0.1-0.1,0.2-0.1,0.3s0,0.2,0,0.4v2h-1.2
	v-6.3L43.5,28.3L43.5,28.3z"/>
<path class="st3" d="M51.4,31.5h-1.1v1.3c0,0.1,0,0.2,0,0.3s0,0.2,0.1,0.2c0,0.1,0.1,0.1,0.2,0.2c0.1,0,0.2,0.1,0.3,0.1s0.2,0,0.3,0
	s0.2,0,0.2-0.1v1c-0.1,0-0.3,0.1-0.4,0.1c-0.1,0-0.3,0-0.4,0c-0.2,0-0.4,0-0.6-0.1c-0.2,0-0.3-0.1-0.5-0.2c-0.1-0.1-0.2-0.2-0.3-0.4
	s-0.1-0.3-0.1-0.6v-1.9h-0.8v-1H49v-1.2h1.2v1.2h1.1v1.1H51.4z"/>
<path class="st3" d="M53.6,30.6h1.2v0.5l0,0c0-0.1,0.1-0.2,0.2-0.2c0.1-0.1,0.2-0.1,0.3-0.2s0.2-0.1,0.3-0.1s0.3-0.1,0.4-0.1
	c0.3,0,0.5,0.1,0.7,0.2s0.4,0.3,0.5,0.5c0.1-0.3,0.3-0.4,0.5-0.6c0.2-0.1,0.5-0.2,0.8-0.2s0.5,0,0.7,0.1s0.3,0.2,0.4,0.4
	c0.1,0.2,0.2,0.3,0.2,0.6c0,0.2,0.1,0.4,0.1,0.7v2.4h-1.2v-2.3c0-0.2,0-0.3-0.1-0.5c-0.1-0.1-0.2-0.2-0.4-0.2c-0.1,0-0.3,0-0.4,0.1
	c-0.1,0-0.2,0.1-0.2,0.2c-0.1,0.1-0.1,0.2-0.1,0.3c0,0.1,0,0.2,0,0.3v2.1h-1.2v-2.1c0-0.1,0-0.2,0-0.3s0-0.2-0.1-0.3
	c0-0.1-0.1-0.2-0.2-0.2c-0.1-0.1-0.2-0.1-0.3-0.1c-0.2,0-0.3,0-0.4,0.1c-0.1,0.1-0.2,0.1-0.2,0.2C55,32,55,32.1,55,32.2s0,0.2,0,0.4
	v2h-1.2v-4C53.8,30.6,53.6,30.6,53.6,30.6z"/>
<path class="st3" d="M62.4,28.3h1.2v6.3h-1.2V28.3z"/>
<path class="st3" d="M70.7,33.2l1.3,1.4h-1.6L69.9,34c-0.2,0.2-0.5,0.4-0.8,0.5s-0.6,0.2-0.9,0.2s-0.5,0-0.8-0.1
	c-0.2-0.1-0.5-0.2-0.7-0.3s-0.4-0.3-0.5-0.6c-0.1-0.2-0.2-0.5-0.2-0.8c0-0.2,0-0.4,0.1-0.5c0.1-0.2,0.2-0.3,0.3-0.5s0.2-0.3,0.4-0.4
	c0.1-0.1,0.3-0.2,0.5-0.2c-0.1-0.1-0.2-0.2-0.3-0.3c-0.1-0.1-0.1-0.2-0.2-0.3c-0.1-0.1-0.1-0.2-0.1-0.3c0-0.1,0-0.2,0-0.4
	c0-0.3,0.1-0.5,0.2-0.7s0.2-0.3,0.4-0.5s0.4-0.2,0.6-0.3c0.2-0.1,0.4-0.1,0.7-0.1c0.2,0,0.4,0,0.6,0.1s0.4,0.1,0.5,0.3
	c0.2,0.1,0.3,0.3,0.4,0.4c0.1,0.2,0.1,0.4,0.1,0.6s0,0.3-0.1,0.5c-0.1,0.1-0.1,0.3-0.2,0.4s-0.2,0.2-0.3,0.3
	c-0.1,0.1-0.3,0.2-0.4,0.3l0.8,0.8l0.6-0.8H72L70.7,33.2z M68.1,32.1c-0.1,0-0.2,0.1-0.2,0.2c-0.1,0.1-0.2,0.1-0.2,0.2
	c-0.1,0.1-0.1,0.1-0.2,0.2c0,0.1-0.1,0.2-0.1,0.3s0,0.2,0.1,0.3c0,0.1,0.1,0.2,0.2,0.2c0.1,0.1,0.2,0.1,0.3,0.1
	c0.1,0,0.2,0.1,0.3,0.1c0.2,0,0.4,0,0.5-0.1s0.3-0.2,0.4-0.3L68.1,32.1z M68.5,29.6c-0.2,0-0.3,0-0.4,0.1s-0.2,0.2-0.2,0.4
	c0,0.1,0,0.1,0.1,0.2c0,0.1,0.1,0.1,0.1,0.2s0.1,0.1,0.2,0.2s0.1,0.1,0.2,0.1s0.1-0.1,0.2-0.1c0.1-0.1,0.1-0.1,0.2-0.2
	s0.1-0.1,0.2-0.2c0-0.1,0.1-0.2,0.1-0.2c0-0.2-0.1-0.3-0.2-0.4C68.8,29.6,68.7,29.6,68.5,29.6z"/>
<path class="st3" d="M76.8,31.9c-0.1-0.1-0.1-0.2-0.3-0.2c-0.1-0.1-0.2-0.1-0.4-0.1c-0.3,0-0.6,0.1-0.7,0.3
	c-0.2,0.2-0.3,0.4-0.3,0.7s0.1,0.5,0.3,0.7c0.2,0.2,0.4,0.3,0.7,0.3c0.1,0,0.3,0,0.4-0.1s0.2-0.1,0.3-0.2l0.8,0.9
	c-0.2,0.2-0.4,0.3-0.7,0.4c-0.3,0.1-0.5,0.1-0.7,0.1c-0.3,0-0.6,0-0.9-0.1s-0.5-0.2-0.7-0.4s-0.4-0.4-0.5-0.7
	C74,33.2,74,32.9,74,32.6c0-0.3,0.1-0.6,0.2-0.9s0.3-0.5,0.5-0.7s0.4-0.3,0.7-0.4c0.3-0.1,0.6-0.1,0.9-0.1c0.2,0,0.5,0,0.7,0.1
	c0.3,0.1,0.5,0.2,0.7,0.4L76.8,31.9z"/>
<path class="st3" d="M82,31.7c-0.2-0.2-0.4-0.3-0.7-0.3c-0.1,0-0.2,0-0.3,0.1c-0.1,0.1-0.1,0.1-0.1,0.3c0,0.1,0.1,0.2,0.2,0.2
	s0.2,0.1,0.4,0.1c0.2,0,0.3,0.1,0.5,0.1s0.3,0.1,0.5,0.2c0.2,0.1,0.3,0.2,0.4,0.4s0.2,0.4,0.2,0.6c0,0.3-0.1,0.5-0.2,0.6
	c-0.1,0.2-0.3,0.3-0.4,0.4c-0.2,0.1-0.4,0.2-0.6,0.2s-0.4,0.1-0.7,0.1c-0.3,0-0.6,0-0.9-0.1s-0.5-0.2-0.7-0.4l0.8-0.8
	c0.1,0.1,0.2,0.3,0.4,0.3c0.1,0.1,0.3,0.1,0.5,0.1c0.1,0,0.3,0,0.4-0.1c0.1,0,0.2-0.1,0.2-0.2c0-0.1-0.1-0.2-0.2-0.2
	c-0.1-0.1-0.2-0.1-0.4-0.1c-0.2,0-0.3-0.1-0.5-0.1s-0.3-0.1-0.5-0.2c-0.2-0.1-0.3-0.2-0.4-0.4s-0.2-0.4-0.2-0.6c0-0.2,0-0.4,0.1-0.6
	s0.2-0.3,0.4-0.4c0.2-0.1,0.3-0.2,0.5-0.2c0.2-0.1,0.4-0.1,0.6-0.1c0.3,0,0.5,0,0.8,0.1s0.5,0.2,0.7,0.4L82,31.7z"/>
<path class="st3" d="M87.4,31.7c-0.2-0.2-0.4-0.3-0.7-0.3c-0.1,0-0.2,0-0.3,0.1c-0.1,0.1-0.1,0.1-0.1,0.3c0,0.1,0.1,0.2,0.2,0.2
	s0.2,0.1,0.4,0.1c0.2,0,0.3,0.1,0.5,0.1s0.3,0.1,0.5,0.2c0.2,0.1,0.3,0.2,0.4,0.4s0.2,0.4,0.2,0.6c0,0.3-0.1,0.5-0.2,0.6
	c-0.1,0.2-0.3,0.3-0.4,0.4c-0.2,0.1-0.4,0.2-0.6,0.2s-0.4,0.1-0.7,0.1c-0.3,0-0.6,0-0.9-0.1s-0.5-0.2-0.7-0.4l0.8-0.8
	c0.1,0.1,0.2,0.3,0.4,0.3c0.1,0.1,0.3,0.1,0.5,0.1c0.1,0,0.3,0,0.4-0.1c0.1,0,0.2-0.1,0.2-0.2c0-0.1-0.1-0.2-0.2-0.2
	c-0.1-0.1-0.2-0.1-0.4-0.1C86.4,33,86.2,33,86,33s-0.3-0.1-0.5-0.2c-0.2-0.1-0.3-0.2-0.4-0.4S85,32.1,85,31.8c0-0.2,0-0.4,0.1-0.6
	s0.2-0.3,0.4-0.4c0.2-0.1,0.3-0.2,0.5-0.2c0.2-0.1,0.4-0.1,0.6-0.1c0.3,0,0.5,0,0.8,0.1s0.5,0.2,0.7,0.4L87.4,31.7z"/>
</svg>
