<?xml version="1.0" encoding="utf-8"?>
<!-- Generator: Adobe Illustrator 28.1.0, SVG Export Plug-In . SVG Version: 6.00 Build 0)  -->
<svg version="1.1" id="Camada_1" xmlns="http://www.w3.org/2000/svg" xmlns:xlink="http://www.w3.org/1999/xlink" x="0px" y="0px"
	 viewBox="0 0 952.8 338.7" style="enable-background:new 0 0 952.8 338.7;" xml:space="preserve">
<style type="text/css">
	.st0{fill:none;stroke:#FFFFFF;stroke-width:6.26;stroke-linecap:round;stroke-linejoin:round;}
	.st1{fill:#FFFFFF;}
</style>
<path class="st0" d="M393.2,316.3V122c0-35.7,29-64.7,64.7-64.7l57.3,0.1c35.6,0.1,64.5,29,64.5,64.6v41.3c0,35.7-29,64.7-64.7,64.7
	H434"/>
<path class="st0" d="M595.8,57.3h24.9c14.7,0,26.6,11.9,26.6,26.6v145.1"/>
<path class="st1" d="M641.9,34.8l-11.3-11.3c-2.8-2.8-2.8-7.3,0-10.1c0,0,0,0,0,0l11.3-11.3c2.8-2.8,7.3-2.8,10.2,0l11.3,11.3
	c2.8,2.8,2.8,7.3,0,10.1c0,0,0,0,0,0L652,34.8C649.2,37.6,644.7,37.6,641.9,34.8C641.9,34.8,641.9,34.8,641.9,34.8"/>
<path class="st0" d="M695,57.2h24.7c12.7,0,24.9,5,33.8,14l57.7,57.7c7.5,7.5,19.6,7.5,27.1,0c0,0,0,0,0,0l57.5-57.5
	c9-9,21.1-14,33.8-14h20.1"/>
<path class="st0" d="M695,227.7h24.7c12.7,0,24.9-5,33.8-14l57.7-57.7c7.5-7.5,19.6-7.5,27.1,0l57.5,57.5c9,9,21.1,14,33.8,14h20.1"
	/>
<path class="st1" d="M246.1,264.5c-12.3,0-24.1-4.8-32.8-13.5L166,203.6c-3.5-3.3-9-3.3-12.4,0l-47.5,47.5
	c-8.7,8.7-20.5,13.6-32.8,13.6H64l60,60c18.7,18.7,49.1,18.7,67.8,0l60.1-60.1L246.1,264.5z"/>
<path class="st1" d="M73.3,97.1c12.3,0,24.1,4.9,32.8,13.6l47.5,47.5c3.4,3.4,9,3.4,12.4,0l47.3-47.3c8.7-8.7,20.5-13.6,32.8-13.6
	h5.7l-60.1-60.1c-18.7-18.7-49.1-18.7-67.8,0c0,0,0,0,0,0L64,97.1H73.3z"/>
<path class="st1" d="M301.6,147l-36.3-36.3c-0.8,0.3-1.7,0.5-2.6,0.5h-16.5c-8.6,0-16.8,3.4-22.9,9.5L175.9,168
	c-8.9,8.9-23.3,8.9-32.1,0l-47.5-47.5c-6.1-6.1-14.3-9.5-22.9-9.5H53c-0.8,0-1.7-0.2-2.4-0.5L14,147c-18.7,18.7-18.7,49.1,0,67.8
	l36.5,36.5c0.8-0.3,1.6-0.5,2.4-0.5h20.4c8.6,0,16.8-3.4,22.9-9.5l47.5-47.5c8.6-8.6,23.6-8.6,32.1,0l47.3,47.3
	c6.1,6.1,14.3,9.5,22.9,9.5h16.5c0.9,0,1.8,0.2,2.6,0.5l36.3-36.3C320.3,196.1,320.3,165.7,301.6,147C301.6,147,301.6,147,301.6,147
	"/>
<path class="st1" d="M442.5,299.8c-3,0.1-6,0.6-8.9,1.4v11.8c2.2,0.8,4.6,1.2,6.9,1.2c5.9,0,8.8-2,8.8-7.2
	C449.3,301.9,447,299.8,442.5,299.8 M431.6,321.8v-23.4h1.6l0.2,1c3-0.8,6.1-1.3,9.3-1.5c2.2-0.2,4.3,0.5,6.1,1.8
	c2,1.7,2.7,4.3,2.7,7.3s-1,5.9-3.8,7.5c-2.1,1.1-4.5,1.6-6.9,1.5c-2.4,0-4.8-0.4-7.1-1.1v6.9L431.6,321.8z"/>
<path class="st1" d="M466.4,299.7c-5.9,0-8.6,1.9-8.6,7.1c0,5,2.6,7.3,8.6,7.3s8.5-1.8,8.5-7.1C474.9,302,472.3,299.7,466.4,299.7
	 M474,314.1c-2,1.4-4.6,1.8-7.6,1.8s-5.7-0.4-7.7-1.8c-2.2-1.5-3.1-4-3.1-7.2s0.9-5.7,3.1-7.2c1.9-1.4,4.6-1.8,7.7-1.8
	s5.7,0.4,7.6,1.8c2.2,1.6,3,4.1,3,7.2S476.2,312.6,474,314.1"/>
<path class="st1" d="M502.1,315.5l-6.6-14.2h-0.1l-6.5,14.2H487l-7-17.1h2.2l5.9,14.4h0.1l6.4-14.4h1.8l6.5,14.4h0.1l5.7-14.4h2.2
	l-7.1,17.1H502.1z"/>
<path class="st1" d="M523.8,299.6c-5.5,0-7.4,2.5-7.7,6h15.4C531.3,301.7,529.3,299.6,523.8,299.6 M523.7,315.9
	c-3.3,0-5.4-0.5-7.1-1.9c-2-1.7-2.7-4.2-2.7-7.1s0.9-5.7,3.2-7.3c2-1.3,4.3-1.9,6.7-1.7c2.4-0.1,4.8,0.4,6.8,1.7
	c2.5,1.7,3,4.6,3,7.9H516c0.1,3.5,1.2,6.6,7.9,6.6c3-0.1,5.9-0.4,8.8-1v1.8C529.8,315.5,526.7,315.8,523.7,315.9"/>
<path class="st1" d="M539.3,315.5v-17.1h1.6l0.2,1c3.6-0.9,5.3-1.5,8.5-1.5h0.2v1.9h-0.5c-2.7,0-4.3,0.4-8.1,1.4v14.4L539.3,315.5z"
	/>
<path class="st1" d="M561.5,299.6c-5.5,0-7.4,2.5-7.7,6h15.4C569,301.7,567,299.6,561.5,299.6 M561.4,315.9c-3.3,0-5.4-0.5-7.1-1.9
	c-2-1.7-2.7-4.2-2.7-7.1s0.9-5.7,3.2-7.3c2-1.3,4.3-1.9,6.7-1.7c2.4-0.1,4.8,0.4,6.8,1.7c2.5,1.7,3,4.6,3,7.9h-17.6
	c0.1,3.5,1.2,6.6,7.9,6.6c3-0.1,5.9-0.4,8.9-1v1.8C567.5,315.5,564.5,315.8,561.4,315.9"/>
<path class="st1" d="M593.2,300.8c-2.2-0.8-4.6-1.2-6.9-1.1c-5.9,0-8.8,2-8.8,7.2c0,5,2.3,7.1,6.8,7.1c3-0.1,6-0.6,8.9-1.3
	L593.2,300.8z M593.6,315.4l-0.2-1c-3,0.8-6.1,1.3-9.3,1.5c-2.2,0.2-4.3-0.5-6.1-1.8c-2-1.7-2.7-4.3-2.7-7.2c0-3.1,1-5.9,3.8-7.5
	c2.1-1.1,4.5-1.6,6.9-1.6c2.4,0,4.8,0.4,7.1,1.1v-7.8h2v24.4L593.6,315.4z"/>
<path class="st1" d="M624.5,299.8c-3,0.1-6,0.6-8.9,1.4v11.8c2.2,0.8,4.6,1.2,6.9,1.2c5.9,0,8.8-2,8.8-7.2
	C631.3,301.9,629,299.8,624.5,299.8 M629.7,314.4c-2.1,1.1-4.5,1.6-6.9,1.5c-2.6,0-5.2-0.5-7.7-1.3l-0.1,0.8h-1.4v-24.3h2v8.2
	c3-0.8,6-1.2,9.1-1.4c2.2-0.2,4.3,0.5,6.1,1.8c2,1.7,2.7,4.3,2.7,7.3S632.5,312.8,629.7,314.4"/>
<path class="st1" d="M636.1,322v-1.9c1,0.1,1.9,0.2,2.5,0.2c2.5,0,4-0.7,5.4-3.5l0.7-1.4l-9-17.1h2.3l7.7,14.8h0.1l7.3-14.8h2.3
	l-9.6,19.2c-1.8,3.5-3.7,4.6-7.2,4.6C637.7,322.2,636.9,322.1,636.1,322"/>
<path class="st1" d="M683,305.7h-6.6v6h6.6c4.6,0,6.3-0.5,6.3-3C689.3,306,686.9,305.7,683,305.7 M681.8,296h-5.4v6.1h5.5
	c4.5,0,6.3-0.5,6.3-3.1C688.1,296.3,685.8,296,681.8,296 M692.1,313.9c-2.5,1.6-5.4,1.6-10.8,1.6h-10.2v-23.3h9.9
	c4.7,0,7.5,0.1,9.9,1.5c1.6,1,2.5,2.7,2.4,4.6c0,2.4-1,4.1-3.7,5.2v0.1c3,0.7,4.9,2.2,4.9,5.5C694.7,311,693.7,312.9,692.1,313.9"/>
<path class="st1" d="M714.8,308.3c-2-0.2-4-0.3-6.2-0.3c-3.5,0-4.7,0.7-4.7,2.3s1,2.3,3.7,2.3c2.4-0.1,4.8-0.4,7.2-1L714.8,308.3z
	 M715.8,315.5l-0.1-1c-3,0.9-6.2,1.4-9.3,1.5c-1.8,0.1-3.6-0.3-5.2-1.3c-2.2-1.9-2.5-5.2-0.7-7.5c0.5-0.5,1-1,1.7-1.3
	c1.8-0.9,4.2-0.9,6.4-0.9c1.8,0,4.2,0.1,6.2,0.2v-0.3c0-2.7-1.8-3.6-6.6-3.6c-1.9,0-4.1,0.1-6.3,0.3v-3.5c2.4-0.2,5.1-0.3,7.4-0.3
	c3,0,6.1,0.2,8,1.6s2.3,3.3,2.3,5.9v10.1L715.8,315.5z"/>
<path class="st1" d="M742,315.5V306c0-3.1-1.6-4.2-4.4-4.2c-2.4,0.1-4.7,0.5-7,1.1v12.6h-4.8v-17.1h3.9l0.2,1.1
	c3-0.9,6.1-1.4,9.2-1.6c2.1-0.2,4.2,0.5,5.9,1.8c1.3,1.2,1.9,2.9,1.9,5.4v10.5H742z"/>
<path class="st1" d="M760.3,315.9c-2.2,0-4.6-0.3-6.4-1.8c-2.1-1.7-2.7-4.4-2.7-7.3c0-2.7,0.9-5.7,3.5-7.3c2.1-1.4,4.8-1.7,7.5-1.7
	c2,0,3.9,0.1,6,0.3v3.7c-1.7-0.2-3.8-0.3-5.5-0.3c-4.5,0-6.7,1.4-6.7,5.4c0,3.7,1.6,5.3,5.3,5.3c2.4-0.1,4.8-0.4,7.2-0.9v3.5
	C765.8,315.5,763,315.8,760.3,315.9"/>
<path class="st1" d="M782.7,301.4c-4.5,0-6.5,1.4-6.5,5.3s2,5.6,6.5,5.6s6.5-1.4,6.5-5.3S787.3,301.4,782.7,301.4 M790.9,314.1
	c-2.1,1.4-4.8,1.8-8.2,1.8s-6.2-0.4-8.2-1.8c-2.4-1.6-3.2-4.1-3.2-7.2s0.8-5.7,3.2-7.3c2.1-1.4,4.8-1.8,8.2-1.8s6.1,0.4,8.2,1.8
	c2.4,1.6,3.2,4.2,3.2,7.2S793.3,312.6,790.9,314.1"/>
<path class="st1" d="M821.7,315.9c-2.9,0-6-0.5-8.3-2.4c-2.8-2.3-3.6-5.9-3.6-9.7c0-3.4,1.1-7.5,4.7-9.9c2.8-1.8,6.3-2.2,9.8-2.2
	c2.6,0,5.2,0.2,8.1,0.4v4.2c-2.5-0.2-5.5-0.4-7.9-0.4c-6.6,0-9.4,2.5-9.4,7.9s2.6,7.9,7.5,7.9c3.5-0.1,7-0.6,10.3-1.4v4.1
	C829.3,315.3,825.5,315.8,821.7,315.9"/>
<path class="st1" d="M847,300.9c-4,0-5.5,1.4-5.8,4h11.5C852.6,302.1,851,300.9,847,300.9 M846.3,315.9c-2.8,0-5.4-0.3-7.3-1.9
	s-2.8-4.2-2.8-7.2c0-2.6,0.8-5.5,3.2-7.2c2.1-1.5,4.8-1.8,7.5-1.8c2.4,0,5.3,0.3,7.4,1.7c2.8,1.9,3,4.9,3,8.4h-16.3
	c0.1,2.6,1.5,4.3,6.3,4.3c3.1-0.1,6.1-0.4,9.1-0.9v3.4C853.2,315.4,849.7,315.8,846.3,315.9"/>
<path class="st1" d="M878.7,315.5V306c0-3.1-1.6-4.2-4.4-4.2c-2.4,0.1-4.7,0.5-7,1.1v12.6h-4.8v-17.1h3.9l0.2,1.1
	c3-0.9,6.1-1.4,9.2-1.6c2.1-0.2,4.2,0.5,5.9,1.8c1.3,1.2,1.9,2.9,1.9,5.4v10.5H878.7z"/>
<path class="st1" d="M897.1,315.9c-2.3,0-4.4-0.6-5.6-2.5c-0.9-1.6-1.4-3.4-1.3-5.2v-6.4h-3.5v-3.6h3.5l0.5-5.2h4.2v5.2h6.8v3.6H895
	v5.5c-0.1,1.1,0.1,2.2,0.5,3.3c0.5,1.1,1.6,1.6,3.1,1.6c1.1,0,2.3-0.1,3.4-0.3v3.4C900.4,315.7,898.7,315.9,897.1,315.9"/>
<path class="st1" d="M906.4,315.5v-17.1h3.9l0.2,1.1c2.7-0.9,5.6-1.5,8.5-1.6c0.2,0,0.4,0,0.6,0v4.1c-0.5,0-1.2,0-1.7,0
	c-2.3,0-4.5,0.3-6.7,0.9v12.6L906.4,315.5z"/>
<path class="st1" d="M937,308.3c-2-0.2-4-0.3-6.2-0.3c-3.5,0-4.7,0.7-4.7,2.3s1,2.3,3.7,2.3c2.4-0.1,4.8-0.4,7.2-1V308.3z
	 M938,315.5l-0.1-1c-3,0.9-6.2,1.4-9.3,1.5c-1.8,0.1-3.6-0.3-5.2-1.3c-1.3-1-2-2.5-1.9-4.1c-0.1-2,1.1-3.8,2.9-4.6
	c1.8-0.9,4.2-0.9,6.4-0.9c1.8,0,4.2,0.1,6.2,0.2v-0.3c0-2.7-1.8-3.6-6.6-3.6c-1.9,0-4.1,0.1-6.3,0.3v-3.5c2.4-0.2,5.1-0.3,7.4-0.3
	c3,0,6.1,0.2,8,1.6s2.3,3.3,2.3,5.9v10.1L938,315.5z"/>
<path class="st1" d="M947.9,291.1h4.8v24.4h-4.8V291.1z"/>
</svg>
